<?xml version="1.0" encoding="utf-8"?>
<!-- Generator: Adobe Illustrator 16.0.0, SVG Export Plug-In . SVG Version: 6.00 Build 0)  -->
<!DOCTYPE svg PUBLIC "-//W3C//DTD SVG 1.1//EN" "http://www.w3.org/Graphics/SVG/1.1/DTD/svg11.dtd">
<svg version="1.1" id="Layer_1" xmlns="http://www.w3.org/2000/svg" xmlns:xlink="http://www.w3.org/1999/xlink" x="0px" y="0px"
	 width="24px" height="24px" viewBox="0 0 24 24" enable-background="new 0 0 24 24" xml:space="preserve">
<g>
	<g>
		<path fill-rule="evenodd" clip-rule="evenodd" d="M13.708,12l4.462-4.601c0.423-0.437,0.421-1.142-0.006-1.576
			c-0.426-0.434-1.115-0.431-1.539,0.005L12,10.598L7.375,5.829C6.951,5.393,6.263,5.39,5.836,5.824S5.407,6.963,5.831,7.399
			L10.292,12l-4.461,4.601c-0.424,0.437-0.422,1.142,0.005,1.575C6.048,18.393,6.325,18.5,6.603,18.5c0.28,0,0.56-0.109,0.772-0.329
			L12,13.402l4.625,4.769c0.213,0.22,0.493,0.329,0.772,0.329c0.277,0,0.555-0.107,0.767-0.324c0.427-0.434,0.429-1.139,0.006-1.575
			L13.708,12z"/>
	</g>
</g>
</svg>
