<svg xmlns="http://www.w3.org/2000/svg" viewBox="0 0 512 512"><path d="M367.904 463.936h-224.968c-8.84 0-16 7.16-16 16s7.16 16 16 16h224.968c8.84 0 16-7.16 16-16s-7.152-16-16-16zm140.752-403.12c-1.512-7.44-8.08-12.784-15.672-12.784h-78.312v-15.968c0-8.84-7.16-16-16-16h-287.768c-8.84 0-16 7.16-16 16v15.968h-75.888c-7.592 0-14.16 5.344-15.672 12.784-.472 2.312-11.2 58.376 19.952 96.576 17.92 21.96 45.304 33.464 81.248 34.488 20.496 60.576 72.032 105.432 134.096 112.12v111.456h-47.888c-8.84 0-16 7.16-16 16s7.16 16 16 16h129.344c8.84 0 16-7.16 16-16s-7.16-16-16-16h-49.456v-111.44c62.168-6.56 113.816-51.4 134.368-112.04 37.168-.544 65.368-12.12 83.696-34.584 31.152-38.208 20.424-94.264 19.952-96.576zm-460.456 76.464c-14.168-17.248-15.592-42.704-14.872-57.248h61.576v54.016c0 8.648.8 17.08 1.968 25.384-21.84-2.04-38.224-9.416-48.672-22.152zm334.472-3.232c0 76.544-57.36 138.832-127.856 138.832-70.528 0-127.904-62.28-127.904-138.832v-85.984h255.768v85.984zm81.128 3.232c-10.84 13.216-28.016 20.744-51.136 22.432 1.192-8.392 2.008-16.92 2.008-25.664v-54.016h64c.72 14.56-.704 40-14.872 57.248z"/></svg>