<svg xmlns="http://www.w3.org/2000/svg" viewBox="0 0 512 512"><path d="M424.576 0h-319c-23 0-33.016 17-33.016 33v63.656h-17.464c-8.656 0-15.672 7.016-15.672 15.672s7.016 15.672 15.672 15.672h17.464v64.376h-15.968c-8.656 0-15.672 7.016-15.672 15.672s7.016 15.672 15.672 15.672h15.968v64.72h-16.312c-8.656 0-15.672 7.016-15.672 15.672s7.016 15.672 15.672 15.672h16.312v64.232h-16.312c-8.656 0-15.672 7.016-15.672 15.672s7.016 15.672 15.672 15.672h16.312v64.64c0 26.512 20.768 32 32.264 32h319.752c26.512 0 48-21.488 48-48v-416c0-26.512-21.48-48-48-48zm-320.016 480v-64.64h16.672c8.656 0 15.672-7.016 15.672-15.672s-7.016-15.672-15.672-15.672h-16.672v-64.232h16.672c8.656 0 15.672-7.016 15.672-15.672s-7.016-15.672-15.672-15.672h-16.672v-64.72h17.016c8.656 0 15.672-7.016 15.672-15.672s-7.016-15.672-15.672-15.672h-17.016v-64.376h15.512c8.656 0 15.672-7.016 15.672-15.672s-7.016-15.672-15.672-15.672h-15.512v-63.656c0-.376.032-.688.08-.968.248-.016.56-.032.936-.032h255v448h-256.016zm336.016-16c0 8.832-7.168 16-16 16h-32v-448h32c8.832 0 16 7.168 16 16v416z"/></svg>