<svg xmlns="http://www.w3.org/2000/svg" viewBox="0 0 512 512"><path d="M256.792 0c-79.064 0-144.752 64.112-144.752 143.168v225.656c0 79.064 65.688 143.176 144.752 143.176s143.176-64.112 143.176-143.168v-225.664c0-79.056-64.112-143.168-143.176-143.168zm111.176 368.832c0 61.296-49.872 111.168-111.176 111.168s-112.752-49.872-112.752-111.168v-225.664c0-61.296 51.456-111.168 112.752-111.168s111.176 49.872 111.176 111.168v225.664zm-111.8-272.832c-8.832 0-16 7.168-16 16v80c0 8.832 7.168 16 16 16s16-7.168 16-16v-80c0-8.832-7.168-16-16-16z"/></svg>