<svg xmlns="http://www.w3.org/2000/svg" viewBox="0 0 512 512"><path d="M480.144 30.088v-14.504c0-8.84-7.16-16-16-16h-112.312c-8.84 0-16 7.16-16 16v65.328l.016.072v198.76c0 48.16-27.168 87.328-75.328 87.328s-84.328-39.168-84.328-87.328v-249.656h-.048v-14.504c0-8.84-7.16-16-16-16h-112.312c-8.84 0-16 7.16-16 16v65.328c0 .328.168.6.184.92v205.248c0 124.456 99.392 225.328 223.832 225.328s224.328-100.872 224.328-225.328v-256.992h-.032zm-32 1.496v64.168h-80.128v-64.168h80.128zm-304 0v64.168h-80.128v-64.168h80.128zm111.696 448.832c-106.608 0-191.832-86.736-191.832-193.328v-159.336h80.168v151.992c0 65.904 50.424 119.328 116.328 119.328s107.336-53.424 107.336-119.328v-151.992h80.328v159.336c0 106.592-85.712 193.328-192.328 193.328z"/></svg>