<svg xmlns="http://www.w3.org/2000/svg" viewBox="0 0 512 512"><path d="M416.528 32.304h-32.232v107.704c0 52.192-28.328 91.68-89.048 122.6 63.032 31.904 89.552 71.08 89.552 129.536 0 38.064-.168 70-.296 87.56h32.032c8.84 0 16 7.144 16 15.984s-7.16 16-16 16h-321.064c-8.84 0-16-7.16-16-16s7.16-15.984 16-15.984h32.968c-.12-17.56-.296-49.504-.296-87.56 0-58.456 26.144-97.624 89.072-129.528-60.616-30.92-88.568-70.408-88.568-122.6v-107.712h-33.176c-8.84 0-16-7.152-16-16 0-8.832 7.16-15.992 16-15.992h321.064c8.84 0 16 7.16 16 15.992-.008 8.848-7.16 16-16.008 16zm-256.392 359.84c0 38.144.176 70.112.296 87.56h192.088c.112-17.456.296-49.424.296-87.56 0-44.504-16.56-79.016-96.592-112.2-80.008 33.184-96.088 67.696-96.088 112.2zm192.176-359.84h-191.68v107.704c0 30.688 10.32 70.208 95.584 105.264 85.28-35.056 96.096-74.576 96.096-105.264v-107.704z"/></svg>