<?xml version="1.0" encoding="utf-8"?>
<!-- Generator: Adobe Illustrator 16.0.0, SVG Export Plug-In . SVG Version: 6.00 Build 0)  -->
<!DOCTYPE svg PUBLIC "-//W3C//DTD SVG 1.1//EN" "http://www.w3.org/Graphics/SVG/1.1/DTD/svg11.dtd">
<svg version="1.1" id="Layer_1" xmlns="http://www.w3.org/2000/svg" xmlns:xlink="http://www.w3.org/1999/xlink" x="0px" y="0px"
	 width="24px" height="24px" viewBox="0 0 24 24" enable-background="new 0 0 24 24" xml:space="preserve">
<g>
	<polygon fill="none" points="2.308,9.404 11.955,14.527 21.665,9.389 11.972,4.225 	"/>
	<path fill="none" d="M11.949,16.127c-0.123,0-0.246-0.03-0.356-0.09l-4.871-2.594v5.559c0.552,0.285,2.077,0.879,5.238,0.879
		c3.142,0,4.701-0.558,5.291-0.841v-5.616l-4.955,2.617C12.188,16.098,12.068,16.127,11.949,16.127z"/>
	<path fill="#CCCCCC" d="M23.223,16.32V10.27L23.6,10.07c0.246-0.127,0.4-0.38,0.403-0.657c0.003-0.276-0.146-0.532-0.389-0.665
		L12.331,2.711c-0.226-0.124-0.499-0.123-0.726,0.002L0.382,8.758c-0.239,0.133-0.386,0.386-0.385,0.66
		c0.001,0.274,0.152,0.525,0.394,0.656l4.931,2.625c-0.062,0.109-0.1,0.233-0.1,0.368v6.346c0,0.215,0.092,0.418,0.251,0.561
		c0.163,0.145,1.721,1.408,6.486,1.408c4.748,0,6.349-1.194,6.516-1.33c0.175-0.143,0.275-0.355,0.275-0.581v-6.509
		c0-0.105-0.022-0.206-0.062-0.297l3.033-1.603v5.263c-0.444,0.26-0.746,0.737-0.746,1.289c0,0.828,0.672,1.5,1.5,1.5
		s1.5-0.672,1.5-1.5C23.977,17.059,23.671,16.578,23.223,16.32z M17.251,19.04c-0.59,0.283-2.149,0.841-5.291,0.841
		c-3.161,0-4.686-0.594-5.238-0.879v-5.559l4.871,2.594c0.11,0.06,0.233,0.09,0.356,0.09c0.119,0,0.239-0.029,0.347-0.086
		l4.955-2.617V19.04z M11.955,14.527L2.308,9.404l9.664-5.179l9.693,5.164L11.955,14.527z"/>
</g>
</svg>
