<?xml version="1.0" encoding="utf-8"?>
<!-- Generator: Adobe Illustrator 16.0.0, SVG Export Plug-In . SVG Version: 6.00 Build 0)  -->
<!DOCTYPE svg PUBLIC "-//W3C//DTD SVG 1.1//EN" "http://www.w3.org/Graphics/SVG/1.1/DTD/svg11.dtd">
<svg version="1.1" id="Layer_1" xmlns="http://www.w3.org/2000/svg" xmlns:xlink="http://www.w3.org/1999/xlink" x="0px" y="0px"
	 width="24px" height="24px" viewBox="0 0 24 24" enable-background="new 0 0 24 24" xml:space="preserve">
<g>
	<path fill="none" d="M17.993,7.517c-0.148,0.241-0.286,0.534-0.388,0.888c-0.457,1.598-0.342,3.467-0.34,3.486
		c0.021,0.334-0.182,0.644-0.498,0.756s-0.669,0.001-0.863-0.273c-0.057-0.08-1.391-1.968-1.979-3.24
		c-1.221-2.639-1.199-5.492-1.075-7.136c-1.236,0.72-3.133,2.328-3.742,5.6c-0.593,3.183,0.56,6.365,0.572,6.396
		c0.1,0.26,0.047,0.555-0.136,0.764c-0.184,0.209-0.466,0.301-0.739,0.236c-0.093-0.023-2.204-0.572-3.571-2.726
		c-0.244-0.386-0.463-0.853-0.648-1.307C4.175,12,3.751,13.381,3.751,14.66c0,4.533,3.379,7.822,8.165,7.822
		c4.829,0,8.333-3.289,8.333-7.822c0-1.958-0.241-2.867-1.176-4.424C18.449,9.196,18.141,8.261,17.993,7.517z"/>
	<path fill="#CCCCCC" d="M20.359,9.465c-1.193-1.99-0.981-3.393-0.974-3.444c0.051-0.275-0.055-0.554-0.273-0.727
		c-0.22-0.172-0.517-0.21-0.771-0.095c-0.064,0.028-1.589,0.732-2.179,2.794c-0.148,0.521-0.245,1.056-0.308,1.56
		c-0.219-0.367-0.422-0.734-0.568-1.049c-1.607-3.476-0.85-7.555-0.842-7.595c0.05-0.256-0.038-0.52-0.23-0.695
		c-0.191-0.175-0.46-0.24-0.713-0.168c-0.197,0.057-4.782,1.45-5.868,7.276c-0.396,2.123-0.152,4.191,0.165,5.566
		c-0.469-0.318-0.885-0.776-1.296-1.425c-0.611-0.963-1.075-2.697-1.08-2.715c-0.078-0.295-0.327-0.513-0.63-0.552
		C4.486,8.163,4.193,8.308,4.044,8.573c-0.073,0.129-1.793,3.219-1.793,6.087c0,5.402,4.011,9.322,9.665,9.322
		c5.697,0,9.833-3.92,9.833-9.322C21.749,12.427,21.438,11.262,20.359,9.465z M11.916,22.482c-4.785,0-8.165-3.289-8.165-7.822
		c0-1.279,0.424-2.661,0.835-3.699c0.185,0.454,0.404,0.921,0.648,1.307c1.367,2.154,3.478,2.703,3.571,2.726
		c0.272,0.064,0.555-0.027,0.739-0.236c0.183-0.209,0.236-0.504,0.136-0.764c-0.012-0.031-1.165-3.214-0.572-6.396
		c0.609-3.271,2.506-4.88,3.742-5.6c-0.124,1.644-0.146,4.497,1.075,7.136c0.588,1.272,1.922,3.16,1.979,3.24
		c0.194,0.274,0.547,0.386,0.863,0.273s0.52-0.422,0.498-0.756c-0.002-0.019-0.117-1.888,0.34-3.486
		c0.102-0.354,0.239-0.647,0.388-0.888c0.147,0.744,0.456,1.679,1.079,2.719c0.935,1.557,1.176,2.466,1.176,4.424
		C20.248,19.193,16.744,22.482,11.916,22.482z"/>
</g>
</svg>
