<svg xmlns="http://www.w3.org/2000/svg" viewBox="0 0 512 512"><path d="M511.656 236.648c-.68-5.656-2.808-10.856-6.048-15.232h.08l-.44-.44c-1.64-2.16-3.56-4.064-5.704-5.752l-208.64-201.704c-18.112-18.112-49.752-18.144-67.888 0l-208.608 200.128c-4.512 4.2-14.44 15.544-14.44 26.672v239.76c0 17.592 14.408 32 32 32h448c17.592 0 32-14.408 32-32v-239.128c.112-1.44-.032-2.88-.312-4.304zm-376.76 126.52l-102.928 94.784v-185.592l102.928 90.808zm32.888 13.192c1.144-.76 2.232-1.624 3.184-2.704.184-.208.312-.456.48-.672l70.584-65c3.624-2.92 7.92-4.456 12.44-4.456 4.592 0 9.184 1.608 12.264 4l191.8 172.552h-403.368l112.616-103.72zm210.944-11.08l101.24-89.848v180.92l-101.24-91.072zm-326.84-143.864l193.752-185.272c3.032-3.016 7.048-4.688 11.312-4.688 4.28 0 8.296 1.672 11.328 4.688l180.688 172.176h-.488l27.448 27.896-121.152 107.52-67.624-60.832c-18.84-14.768-45.888-15.408-65.84.688l-62.752 57.792-120.896-106.672 13.496-13.296h.728z"/></svg>