<svg xmlns="http://www.w3.org/2000/svg" viewBox="0 0 512 512"><path d="M511.656 236.64c-.68-5.656-2.808-10.856-6.048-15.232h.08l-.44-.44c-1.64-2.16-3.56-4.064-5.704-5.752l-83.576-84.192v-51.632c0-8.84-7.16-16-16-16h-50.664l-58.4-49.856c-18.112-18.112-49.752-18.144-67.888 0l-58.2 49.856h-52.848c-8.84 0-16 7.16-16 16v52.688l-81.56 81.56c-8.672 5.736-14.44 15.544-14.44 26.672v239.752c0 17.592 14.408 32 32 32h448c17.592 0 32-14.408 32-32v-239.12c.112-1.44-.032-2.88-.312-4.304zm-377.224 126.112l-102.464 95.04v-185.448l102.464 90.408zm30.848 15c2.112-.904 4.064-2.264 5.688-4.112.856-.968 1.528-2.032 2.112-3.128l68.952-63.968c3.624-2.92 7.92-4.456 12.44-4.456 4.592 0 9.184 1.608 12.264 4l191.92 173.968h-403.656l110.28-102.304zm213.888-12.888l100.8-89.448v180.816l-100.8-91.368zm69.8-156.552h-.488l27.448 27.896-59.96 53.216v-114.104l33 32.992zm-203.328-172.152c3.032-3.016 7.048-4.688 11.312-4.688 4.28 0 8.296 1.672 11.328 4.688l32.312 27.232h-87.216l32.264-27.232zm138.328 59.232v222.424l-28.656 25.44-68.16-61.784c-18.84-14.768-45.888-15.408-65.84.688l-63.312 58.72-30.032-26.504v-218.984h256zm-332.08 126.016l44.08-44.064v108.808l-58.312-51.448 13.496-13.296h.736z"/></svg>