<svg xmlns="http://www.w3.org/2000/svg" viewBox="0 0 512 512"><path d="M256 0c-141.392 0-256 114.608-256 256s114.608 256 256 256 256-114.608 256-256-114.608-256-256-256zm224 256c0 33.16-7.296 64.632-20.28 92.968l-141.608-75.776c1.512-5.488 2.392-11.232 2.392-17.192 0-35.624-28.872-64.504-64.504-64.504-7.312 0-14.312 1.272-20.856 3.512l-84.808-136.456c31.496-16.92 67.472-26.552 105.664-26.552 123.512 0 224 100.488 224 224zm-224-32.496c17.92 0 32.504 14.576 32.504 32.504s-14.584 32.496-32.504 32.496-32.496-14.584-32.496-32.504 14.576-32.496 32.496-32.496zm-132.712-147.816l85.088 136.92c-.376.416-.768.824-1.144 1.256l-141.584-75.76c15.104-24.288 34.696-45.488 57.64-62.416zm-91.288 180.312c0-31.84 6.72-62.128 18.752-89.584l142.184 76.08c-.928 4.36-1.44 8.864-1.44 13.504 0 35.624 28.872 64.504 64.504 64.504 6.2 0 12.176-.92 17.848-2.552l85.096 136.896c-30.84 16.024-65.832 25.152-102.944 25.152-123.512 0-224-100.488-224-224zm354.224 182.08l-84.752-136.344.728-.768 142.144 76.072c-15.376 23.816-35.12 44.544-58.12 61.04z"/></svg>