<svg xmlns="http://www.w3.org/2000/svg" viewBox="0 0 512 512"><path d="M508.2 248.32l-4.24-4.04-.264-.184-64.872-59.216c-4.672-4.472-12.224-4.472-16.912 0l-2.744 4.032c-4.672 4.472-3.152 11.704 1.52 16.168l38.232 34.672h-185.672v-186.672l34.672 38.232c4.472 4.672 11.704 6.192 16.168 1.512l4.032-2.736c4.472-4.688 4.472-12.24 0-16.92l-56.584-61.984c-1.376-2.776-3.504-5.072-6.16-6.648l-.712-.744c-2.216-2.336-5.168-3.504-8.112-3.488-2.952-.016-5.888 1.152-8.144 3.488l-4.048 4.232-.168.272-57.752 63.872c-4.464 4.664-4.464 12.224 0 16.912l4.032 2.736c4.464 4.672 11.712 3.16 16.184-1.512l34.576-38.552v187.992h-188.152l38.232-34.672c4.672-4.472 6.192-11.704 1.52-16.168l-2.736-4.032c-4.68-4.472-12.248-4.472-16.92 0l-61.992 56.592c-2.768 1.368-5.064 3.504-6.64 6.144l-.744.712c-2.344 2.224-3.504 5.176-3.488 8.12-.008 2.952 1.144 5.888 3.488 8.144l4.232 4.048.264.168 63.872 57.752c4.672 4.464 12.232 4.464 16.92 0l2.736-4.032c4.672-4.472 3.152-11.72-1.52-16.184l-38.56-34.576h189.504v188.48l-34.576-38.552c-4.472-4.672-11.72-6.184-16.184-1.512l-4.032 2.736c-4.464 4.688-4.464 12.248 0 16.912l57.752 63.872.168.264 4.048 4.24c2.256 2.336 5.192 3.504 8.144 3.488 2.936.016 5.888-1.152 8.112-3.488l4.048-4.24.184-.264 59.216-64.872c4.472-4.672 4.472-12.232 0-16.912l-4.032-2.744c-4.472-4.672-11.704-3.152-16.168 1.52l-34.672 38.232v-187.168h186.984l-38.552 34.576c-4.672 4.472-6.184 11.72-1.512 16.184l2.736 4.032c4.688 4.464 12.248 4.464 16.912 0l63.872-57.752.264-.168 4.24-4.048c2.336-2.248 3.504-5.184 3.488-8.144.016-2.928-1.152-5.888-3.488-8.112z"/></svg>