<svg xmlns="http://www.w3.org/2000/svg" viewBox="0 0 512 512"><path d="M405.208 485.36l-85.2-100.832v-176.752h10.656c8.84 0 16-7.16 16-16s-7.16-16-16-16h-26.656c-8.84 0-16 7.16-16 16v198.912c0 3.968 1.472 7.784 4.128 10.72l65.184 78.672h-202.64l65.184-78.672c2.656-2.936 4.128-6.752 4.128-10.72v-198.912c0-8.84-7.16-16-16-16h-26.656c-8.84 0-16 7.16-16 16s7.16 16 16 16h10.656v176.752l-85.2 100.832c-4.232 4.688-5.312 11.44-2.752 17.216 2.576 5.784 8.296 9.504 14.624 9.504h274.672c6.328 0 12.048-3.72 14.624-9.504 2.56-5.776 1.488-12.528-2.752-17.216zm-165.208-325.52c17.632 0 31.92-14.296 31.92-31.92 0-17.608-14.288-31.904-31.92-31.904-17.64 0-31.92 14.296-31.92 31.904 0 17.624 14.28 31.92 31.92 31.92zm104.24-47.496c31.184 0 56.464-25.168 56.464-56.208s-25.272-56.208-56.464-56.208c-31.176 0-56.464 25.168-56.464 56.208s25.288 56.208 56.464 56.208zm-.248-80.512c13.328 0 24.168 10.792 24.168 24.064 0 13.264-10.84 24.064-24.168 24.064s-24.168-10.8-24.168-24.064c.008-13.272 10.84-24.064 24.168-24.064z"/></svg>