<svg xmlns="http://www.w3.org/2000/svg" viewBox="0 0 512 512"><path d="M511.824 145.24c.232-11.832-2.952-39.424-38.92-49.032l-357.88-71.968-3.328-.344c-26.472 0-48 21.528-48 48v64.352l-16-.04c-26.376.112-47.816 21.576-47.816 47.984v255.904c0 26.472 21.528 48 48 48h416.232c26.472 0 48-21.528 48-48l-.288-294.856zm-416.128-73.344c0-8.36 6.44-15.232 14.608-15.936l353 71.44c.128.064-2.624 8.968-15.44 8.8h-352.168v-64.304zm384.424 368.208c0 8.832-7.168 16-16 16h-416.24c-8.832 0-16-7.168-16-16v-255.912c0-8.832 7.168-16 16-16h400.032c15.704 0 32.2-5.352 32.2-15.944v287.856zm-384.208-159.856c-17.672 0-32 14.328-32 32s14.328 32 32 32 32-14.328 32-32-14.328-32-32-32z"/></svg>