<svg xmlns="http://www.w3.org/2000/svg" viewBox="0 0 512 512"><path d="M480 31.8h-448c-17.672 0-32 14.328-32 32v288.752c0 17.672 14.328 32 32 32h63.768v79.656c0 6.456 3.872 12.264 9.816 14.752 2 .84 4.112 1.248 6.184 1.248 4.128 0 8.168-1.592 11.216-4.592l92.512-91.064h264.504c17.672 0 32-14.328 32-32v-288.752c0-17.672-14.328-32-32-32zm0 320.744h-277.608l-74.624 73.456v-73.456h-95.768v-288.744h448v288.744zm-368-128.04h288c8.832 0 16-7.168 16-16s-7.168-16-16-16h-288c-8.832 0-16 7.168-16 16s7.168 16 16 16zm0-64h288c8.832 0 16-7.168 16-16s-7.168-16-16-16h-288c-8.832 0-16 7.168-16 16s7.168 16 16 16zm0 128h192c8.832 0 16-7.168 16-16s-7.168-16-16-16h-192c-8.832 0-16 7.168-16 16s7.168 16 16 16z"/></svg>