<svg xmlns="http://www.w3.org/2000/svg" viewBox="0 0 512 512"><path d="M476.368 127.464h-60.36v-127.224h-320.016v127.224h-60.36c-19.656 0-35.656 16-35.656 35.672v216.944c0 19.672 16 35.672 35.656 35.672h60.36v96.008h320.016v-96.008h60.36c19.656 0 35.656-16 35.656-35.672v-216.944c0-19.672-16-35.672-35.656-35.672zm-348.376-95.72h256.016v95.72h-256.016v-95.72zm256.016 448.016h-256.016v-176.2h256.016v176.2zm96.016-99.68c0 2.04-1.64 3.672-3.656 3.672h-60.36v-112.192h-320.016v112.184h-60.36c-2.016 0-3.656-1.632-3.656-3.672v-216.936c0-2.032 1.64-3.672 3.656-3.672h440.736c2.016 0 3.656 1.64 3.656 3.672v216.944zm-64.024-188.36h-16c-8.832 0-16 7.168-16 16s7.168 16 16 16h16c8.832 0 16-7.168 16-16s-7.168-16-16-16z"/></svg>