<svg xmlns="http://www.w3.org/2000/svg" viewBox="0 0 512 512"><path d="M512 160.248c0-17.672-14.328-32-32-32h-54.624c14.136-13.944 23.184-32.224 23.184-54.736 0-27.72-15.92-57.832-60.608-57.832-58.8 0-107.92 62.608-131 97.704-23.096-35.088-73.72-97.696-132.512-97.696-44.688 0-60.608 30.112-60.608 57.832 0 22.504 9.296 40.792 23.72 54.736h-55.552c-17.672 0-32 14.328-32 32v95.784h32.28v208.28c0 17.672 14.328 32 32 32h383.84c17.672 0 32-14.328 32-32v-208.288h31.88v-95.784zm-124.048-112.56c19.784 0 28.608 8.312 28.608 25.832 0 35.544-39.672 54.72-76.984 54.72h-54.168c22.736-33.768 62.752-80.552 102.544-80.552zm-263.512 0c39.8 0 81.328 46.784 104.064 80.544h-54.184c-37.312 0-78.488-19.672-78.488-55.216 0-17.512 8.824-25.328 28.608-25.328zm355.56 176.344h-208v-63.784h208v63.784zm-448-63.784h208v63.784h-208v-63.784zm32.28 95.784h175.72v208.28h-175.72v-208.28zm383.848 208.28h-176.128v-208.28h176.128v208.28z"/></svg>