<svg xmlns="http://www.w3.org/2000/svg" viewBox="0 0 512 512"><path d="M16.88 31.88h224c8.832 0 16-7.168 16-16s-7.168-16-16-16h-224c-8.832 0-16 7.168-16 16s7.16 16 16 16zm0 96h224c8.832 0 16-7.168 16-16s-7.168-16-16-16h-224c-8.832 0-16 7.168-16 16s7.16 16 16 16zm240 80c0-8.832-7.168-16-16-16h-224c-8.832 0-16 7.168-16 16s7.168 16 16 16h224c8.832 0 16-7.168 16-16zm249.56-45.608l-156.456-156.448c-4.952-4.96-12.328-5.92-18.296-3.008-6.272 2.168-10.808 8.056-10.808 15.064v354.2c-16.96-12.568-39.216-20.264-63.688-20.264-53.032 0-96.048 35.888-96.048 80.144 0 44.264 43.016 80.168 96.048 80.168 53.064 0 96.048-35.904 96.048-80.168 0-2.008-.184-3.968-.36-5.936v-372.048l130.92 130.928c6.248 6.248 16.384 6.248 22.632 0 6.248-6.248 6.248-16.384.008-22.632zm-185.56 271.24c-1.152 22.248-27.096 46.408-64.064 46.408-37.824 0-64.176-25.28-64.176-47.936 0-22.672 26.352-47.92 64.176-47.92 36.968 0 62.912 24.128 64.064 46.392v3.056z"/></svg>