<?xml version="1.0" encoding="utf-8"?>
<!-- Generator: Adobe Illustrator 16.0.0, SVG Export Plug-In . SVG Version: 6.00 Build 0)  -->
<!DOCTYPE svg PUBLIC "-//W3C//DTD SVG 1.1//EN" "http://www.w3.org/Graphics/SVG/1.1/DTD/svg11.dtd">
<svg version="1.1" id="Layer_1" xmlns="http://www.w3.org/2000/svg" xmlns:xlink="http://www.w3.org/1999/xlink" x="0px" y="0px"
	 width="24px" height="24px" viewBox="0 0 24 24" enable-background="new 0 0 24 24" xml:space="preserve">
<g>
	<path fill="none" d="M14.353,6.571l-3.378,3.377c0.608,0.4,1.183,0.864,1.71,1.391c0.528,0.529,0.989,1.102,1.384,1.705
		l3.393-3.394c-0.622-0.35-1.213-0.802-1.772-1.361C15.142,7.743,14.697,7.17,14.353,6.571z"/>
	<path fill="none" d="M4.696,9.814l9.44,9.502c0.287-2.434-0.631-5.035-2.513-6.917C9.731,10.508,7.119,9.531,4.696,9.814z"/>
	<path fill="none" d="M16.749,7.229c1.468,1.467,3.083,2.048,5.021,1.77L15.045,2.24C14.751,4.179,15.307,5.787,16.749,7.229z"/>
	<path fill="#CCCCCC" d="M23.785,8.898l-8.629-8.672c-0.186-0.187-0.453-0.263-0.71-0.199c-0.256,0.062-0.46,0.254-0.538,0.506
		c-0.52,1.671-0.579,3.184-0.183,4.563c-0.036,0.025-0.071,0.052-0.104,0.084l-4.01,4.01c-1.293-0.6-2.685-0.925-4.071-0.925
		c-0.881,0-1.745,0.13-2.568,0.386C2.723,8.729,2.53,8.932,2.467,9.187C2.404,9.441,2.479,9.71,2.664,9.896l5.132,5.165l-7.176,7.29
		l-0.624,1.644l1.509-0.583l7.344-7.29l5.2,5.232c0.142,0.144,0.334,0.222,0.531,0.222c0.059,0,0.119-0.008,0.179-0.021
		c0.256-0.062,0.46-0.255,0.538-0.506c0.679-2.186,0.479-4.531-0.477-6.637l4.094-4.095c0.016-0.015,0.025-0.031,0.039-0.047
		c0.617,0.177,1.258,0.271,1.923,0.271c0.825,0,1.7-0.118,2.601-0.398c0.251-0.078,0.443-0.281,0.506-0.536
		S23.971,9.085,23.785,8.898z M14.137,19.316l-9.44-9.502c2.423-0.283,5.035,0.694,6.927,2.586
		C13.506,14.281,14.424,16.883,14.137,19.316z M14.068,13.044c-0.395-0.603-0.855-1.176-1.384-1.705
		c-0.527-0.526-1.102-0.99-1.71-1.391l3.378-3.377c0.345,0.599,0.789,1.172,1.336,1.718c0.56,0.559,1.15,1.011,1.772,1.361
		L14.068,13.044z M16.749,7.229c-1.442-1.442-1.998-3.05-1.704-4.99l6.725,6.759C19.832,9.277,18.217,8.697,16.749,7.229z"/>
</g>
</svg>
