<svg xmlns="http://www.w3.org/2000/svg" viewBox="0 0 512 512"><path d="M480 39.952h-448c-17.592 0-32 14.408-32 32v368.096c0 17.592 14.408 32 32 32h448c17.592 0 32-14.408 32-32v-368.096c0-17.592-14.408-32-32-32zm0 400.096h-448v-94.28l128.424-124.456 132.392 132.248c5.456 6.624 15.168 5.784 22.064.56l58.44-52.904 105.4 108.192c.4.4.848.696 1.28 1.04v29.6zm0-75.152l-94.016-96.208c-5.704-5.624-14.64-6.2-20.968-1.376l-60.28 52.512-132.472-131.04c-2.832-3.424-6.92-5.512-11.344-5.8-4.408-.16-8.752 1.28-11.984 4.312l-116.936 113.8v-229.144h448v292.944zm-112-164.832c17.64 0 31.92-14.304 31.92-31.92 0-17.608-14.28-31.912-31.92-31.912s-31.92 14.304-31.92 31.912c0 17.616 14.28 31.92 31.92 31.92z"/></svg>