<svg xmlns="http://www.w3.org/2000/svg" viewBox="0 0 512 512"><path d="M496.592 67.504l-160.48-66.536-159.72 63.216-160.984-63.184c-1.376-.408-2.72-.56-3.984-.56-6.568-.032-11.424 4.872-11.424 12.248v415c0 8.784 6.936 17.936 15.408 20.28l161.168 63.592 159.504-64.752 160.512 63.064c1.376.376 2.72.56 3.984.56 6.56 0 11.424-4.872 11.424-12.248v-410.368c0-8.784-6.936-17.944-15.408-20.312zm-304.592 23.064l128-50.152v380.752l-128 50.592v-381.192zm-160-47.224l128 47.288v380.88l-128-52.136v-376.032zm448 425.656l-128-48.192v-379.912l128 55.192v372.912z"/></svg>