<svg xmlns="http://www.w3.org/2000/svg" viewBox="0 0 512 512"><path d="M10.92 150.904l237.544 129.36c2.392 1.296 5.016 1.952 7.656 1.952 2.608 0 5.216-.64 7.592-1.92l240.048-129.36c5.232-2.816 8.488-8.312 8.408-14.264-.08-5.968-3.456-11.376-8.752-14.08l-237.56-120.64c-4.528-2.296-9.872-2.312-14.44-.032l-240.024 120.64c-5.312 2.672-8.72 8.08-8.816 14.032s3.128 11.472 8.344 14.312zm247.656-116.76l203.08 103.136-205.488 110.736-203.088-110.592 205.496-103.28zm242.096 206.016l-47.488-24.112-34.28 18.488 40 20.312-205.48 110.728-203.096-110.592 42.656-21.44-34.184-18.624-50.16 25.2c-5.312 2.672-8.72 8.08-8.816 14.032s3.128 11.472 8.344 14.312l237.544 129.36c2.392 1.296 5.016 1.952 7.656 1.952 2.608 0 5.216-.64 7.592-1.92l240.048-129.36c5.232-2.816 8.488-8.312 8.408-14.264-.072-5.968-3.448-11.376-8.744-14.072zm0 112l-44.984-22.112-34.28 18.488 37.504 18.312-205.488 110.728-203.096-110.592 39.656-17.936-34.184-18.624-47.16 21.704c-5.312 2.672-8.72 8.08-8.816 14.032s3.128 11.472 8.344 14.312l237.544 129.36c2.392 1.296 5.016 1.952 7.656 1.952 2.608 0 5.216-.64 7.592-1.92l240.048-129.36c5.232-2.816 8.488-8.312 8.408-14.264-.072-5.976-3.448-11.384-8.744-14.08z"/></svg>