<svg xmlns="http://www.w3.org/2000/svg" viewBox="0 0 512 512"><path d="M511.368 471.32l-41.704-251.888c-3.72-32.656-33.488-59.216-66.36-59.216h-35.328v-42.64c0-65.08-46.424-118.016-111.488-118.016-65.048 0-112.472 52.936-112.472 118.016v42.64h-38.336c-32.872 0-62.64 26.56-66.264 58.528l-38.64 252.08c-1.488 13.28 1.112 23.752 7.704 31.144 6.216 6.952 15.264 10.488 26.872 10.488h436.784c16.456 0 25.888-6.608 30.92-12.16 4.608-5.104 9.824-14.072 8.312-28.976zm-335.344-353.752c0-47.424 33.064-86.016 80.472-86.016s79.488 38.592 79.488 86.016v42.64h-159.96v-42.64zm297.56 362.656l-436.248.224c-2.752 0-5.504-1.472-4.856-5.344l38.624-252.048c1.92-16.72 17.752-30.84 34.576-30.84h38.344v36.464c-9.536 5.536-16.024 15.744-16.024 27.568 0 17.672 14.328 32 32 32s32-14.328 32-32c0-11.808-6.464-22-15.976-27.544v-36.496h159.952v36.496c-9.504 5.544-15.976 15.744-15.976 27.544 0 17.672 14.328 32 32 32s32-14.328 32-32c0-11.824-6.488-22.032-16.024-27.576v-36.464h35.328c16.832 0 32.656 14.128 34.704 31.72l41.672 251.64c.2 2.048-1.408 4.656-6.096 4.656z"/></svg>