<svg xmlns="http://www.w3.org/2000/svg" viewBox="0 0 512 512"><path d="M112 56h-96c-8.832 0-16 7.168-16 16v96c0 8.832 7.168 16 16 16s16-7.168 16-16v-80h80c8.832 0 16-7.168 16-16s-7.168-16-16-16zm384 272c-8.832 0-16 7.168-16 16v80h-80c-8.832 0-16 7.168-16 16s7.168 16 16 16h96c8.832 0 16-7.168 16-16v-96c0-8.832-7.168-16-16-16zm-384 96h-80v-80c0-8.832-7.168-16-16-16s-16 7.168-16 16v96c0 8.832 7.168 16 16 16h96c8.832 0 16-7.168 16-16s-7.168-16-16-16zm384-368h-96c-8.832 0-16 7.168-16 16s7.168 16 16 16h80v80c0 8.832 7.168 16 16 16s16-7.168 16-16v-96c0-8.832-7.168-16-16-16z"/></svg>