<svg xmlns="http://www.w3.org/2000/svg" viewBox="0 0 512 512"><path d="M400 136.144h32c8.832 0 16-7.168 16-16v-16c0-8.832-7.168-16-16-16h-32c-8.832 0-16 7.168-16 16v16c0 8.832 7.168 16 16 16zm0 96h32c8.832 0 16-7.168 16-16v-16c0-8.832-7.168-16-16-16h-32c-8.832 0-16 7.168-16 16v16c0 8.832 7.168 16 16 16zm0 96h32c8.832 0 16-7.168 16-16v-16c0-8.832-7.168-16-16-16h-32c-8.832 0-16 7.168-16 16v16c0 8.832 7.168 16 16 16zm0 96h32c8.832 0 16-7.168 16-16v-16c0-8.832-7.168-16-16-16h-32c-8.832 0-16 7.168-16 16v16c0 8.832 7.168 16 16 16zm-320-288h32c8.832 0 16-7.168 16-16v-16c0-8.832-7.168-16-16-16h-32c-8.832 0-16 7.168-16 16v16c0 8.832 7.168 16 16 16zm0 96h32c8.832 0 16-7.168 16-16v-16c0-8.832-7.168-16-16-16h-32c-8.832 0-16 7.168-16 16v16c0 8.832 7.168 16 16 16zm0 96h32c8.832 0 16-7.168 16-16v-16c0-8.832-7.168-16-16-16h-32c-8.832 0-16 7.168-16 16v16c0 8.832 7.168 16 16 16zm0 96h32c8.832 0 16-7.168 16-16v-16c0-8.832-7.168-16-16-16h-32c-8.832 0-16 7.168-16 16v16c0 8.832 7.168 16 16 16zm400-416.192h-448c-17.592 0-32 14.408-32 32v432.096c0 17.592 14.408 32 32 32h448c17.592 0 32-14.408 32-32v-432.096c0-17.592-14.408-32-32-32zm0 464.096h-448v-432.096h448v432.096z"/></svg>