<svg xmlns="http://www.w3.org/2000/svg" viewBox="0 0 512 512"><path d="M511.92 302.28c.048-10.528-1.608-50.248-2.872-61.608-14.56-130.376-120.376-225-251.592-225-136.672 0-247.408 105.312-254.92 244.952-.16 3.048-1.28 24.672-1.36 37.544l-.04 7.16c-.656 2.96-1.056 6.016-1.056 9.168v139.328c0 23.44 19.064 42.504 42.504 42.504h43.144c23.44 0 42.512-19.064 42.512-42.504v-139.32c0-23.44-19.08-42.504-42.512-42.504h-43.16c-2.944 0-5.816.304-8.592.872.24-5.192.456-9.296.512-10.528 6.592-122.392 103.568-214.672 222.968-214.672 114.64 0 207.064 82.672 219.784 196.56.544 4.752 1.232 16.832 1.784 28.96-3.12-.72-6.304-1.192-9.616-1.192h-42.64c-23.44 0-42.504 19.064-42.504 42.504v138.832c0 23.448 19.064 42.504 42.504 42.504h42.64c23.44 0 42.512-19.064 42.512-42.504v-138.832c0-2.608-.32-5.144-.784-7.608.464-1.472.768-3.008.784-4.616zm-469.352 1.72h43.144c5.8 0 10.512 4.704 10.512 10.504v139.328c0 5.808-4.72 10.504-10.512 10.504h-43.144c-5.8 0-10.504-4.704-10.504-10.504v-139.328c.016-5.8 4.72-10.504 10.504-10.504zm437.352 149.328c0 5.8-4.72 10.504-10.512 10.504h-42.64c-5.8 0-10.504-4.704-10.504-10.504v-138.824c0-5.8 4.704-10.504 10.504-10.504h42.64c5.8 0 10.512 4.704 10.512 10.504v138.824z"/></svg>