<svg xmlns="http://www.w3.org/2000/svg" viewBox="0 0 512 512"><path d="M508.528 93.032l-49.848-55.672c-3.032-3.424-7.392-5.376-11.968-5.376h-175.128v-16.984c0-8.28-7.168-15-16-15s-16 6.72-16 15v16.984h-127.904c-8.84 0-16 7.16-16 16v111.832c0 8.84 7.16 16 16 16h127.904v32.048h-174.296c-4.576 0-8.936 1.952-11.968 5.376l-49.84 56.656c-5.376 6.064-5.376 15.184 0 21.248l49.84 56.144c3.056 3.424 7.392 4.872 11.968 4.872h174.296v144.84c0 8.28 7.168 15 16 15s16-6.72 16-15v-144.84h128.232c8.84 0 16-7.16 16-16v-112.304c0-8.84-7.16-16-16-16h-128.232v-32.048h175.128c4.576 0 8.936-1.952 11.968-5.376l49.848-56.16c5.368-6.056 5.368-15.176 0-21.24zm-124.704 227.128h-311.344l-35.64-39.64 35.64-40.656h311.344v80.296zm55.696-176.344h-311.84v-79.832h311.84l35.64 39.672-35.64 40.16z"/></svg>