<svg xmlns="http://www.w3.org/2000/svg" viewBox="0 0 512 512"><path d="M509.36 147.736l-69.936-133.72c-4.08-7.8-14.632-14.176-23.424-14.176h-160.968l-.528-.064-.424.064h-158.08c-8.8 0-19.376 6.36-23.512 14.128l-69.752 131.144c-4.144 7.768-3.312 19.968 1.816 27.128l240.008 334.576c2.576 3.592 6 5.408 9.416 5.408 3.392 0 6.792-1.768 9.384-5.296l243.952-332.128c5.192-7.096 6.128-19.272 2.048-27.064zm-38.176-3.92h-85.728l34.328-98.304 51.4 98.304zm-183.512-111.976h102.984l-31.944 91.464-71.04-91.464zm46.448 111.976h-148.824l70.336-101.048 78.488 101.048zm-177.176-15.272l-32.088-96.704h99.408l-67.32 96.704zm183.432 47.272l-86.016 246.272-81.728-246.272h167.744zm-121.912 239.728l-171.968-239.728h92.416l79.552 239.728zm155.808-239.728h92.584l-176.488 240.28 83.904-240.28zm-280.032-134.608l34.048 102.608h-88.624l54.576-102.608z"/></svg>