<svg xmlns="http://www.w3.org/2000/svg" viewBox="0 0 512 512"><path d="M480.008 95.736h-127.8v-31c0-26.472-21.528-48-48-48h-96.216c-26.472 0-48 21.528-48 48v31h-127.984c-17.592 0-32 14.408-32 32v112.128h-.016v32h.016v191.408c0 17.592 14.408 32 32 32h448c17.592 0 32-14.408 32-32v-335.536c0-17.592-14.408-32-32-32zm-288.016-31c0-8.832 7.168-16 16-16h96.216c8.832 0 16 7.168 16 16v31h-128.216v-31zm-159.984 63h448v112.128h-176.184v-16.376c0-17.64-14.36-32-32-32h-31.872c-17.64 0-32 14.36-32 32v16.376h-175.944v-112.128zm239.84 176.328h-31.904v-80.576h31.872l.032 80.576zm-239.84 159.2v-191.408h175.936v32.2c0 17.64 14.36 32 32 32h31.872c17.64 0 32-14.36 32-32v-32.2h176.184v191.408h-447.992z"/></svg>