<?xml version="1.0" encoding="utf-8"?>
<!-- Generator: Adobe Illustrator 16.0.0, SVG Export Plug-In . SVG Version: 6.00 Build 0)  -->
<!DOCTYPE svg PUBLIC "-//W3C//DTD SVG 1.1//EN" "http://www.w3.org/Graphics/SVG/1.1/DTD/svg11.dtd">
<svg version="1.1" id="Layer_1" xmlns="http://www.w3.org/2000/svg" xmlns:xlink="http://www.w3.org/1999/xlink" x="0px" y="0px"
	 width="24px" height="24px" viewBox="0 0 24 24" enable-background="new 0 0 24 24" xml:space="preserve">
<g>
	<path fill="none" d="M1.492,1.55v18c0,0.076,0.101,0.208,0.173,0.229l9.584,2.648V4.227c-0.107-0.017-0.21-0.037-0.302-0.062
		L1.492,1.55z M9.769,17.038c-0.093,0.331-0.395,0.548-0.722,0.548c-0.067,0-0.136-0.01-0.204-0.028L3.595,16.08
		c-0.399-0.113-0.631-0.526-0.52-0.925c0.112-0.398,0.529-0.63,0.925-0.52l5.249,1.478C9.648,16.227,9.88,16.64,9.769,17.038z
		 M9.769,12.538c-0.093,0.331-0.395,0.548-0.722,0.548c-0.067,0-0.136-0.01-0.204-0.028l-5.249-1.477
		c-0.399-0.113-0.631-0.527-0.52-0.925c0.112-0.398,0.529-0.63,0.925-0.52l5.249,1.477C9.648,11.726,9.88,12.14,9.769,12.538z
		 M9.769,8.038C9.675,8.369,9.374,8.585,9.047,8.585c-0.067,0-0.136-0.009-0.204-0.028L3.595,7.081
		c-0.399-0.113-0.631-0.527-0.52-0.925C3.188,5.757,3.604,5.525,4,5.636l5.249,1.477C9.648,7.226,9.88,7.64,9.769,8.038z"/>
	<path fill="none" d="M12.75,4.179v18.186l9.564-2.591c0.072-0.02,0.193-0.148,0.193-0.223V1.542l-9.716,2.628L12.75,4.179z
		 M14.845,7.113l5.249-1.477c0.396-0.11,0.812,0.121,0.925,0.52s-0.12,0.812-0.52,0.925L15.25,8.558
		c-0.066,0.019-0.136,0.028-0.203,0.028c-0.327,0-0.629-0.216-0.722-0.547C14.213,7.64,14.445,7.226,14.845,7.113z M14.845,11.613
		l5.249-1.477c0.396-0.11,0.812,0.121,0.925,0.52s-0.12,0.812-0.52,0.925l-5.249,1.477c-0.066,0.019-0.136,0.028-0.203,0.028
		c-0.327,0-0.629-0.217-0.722-0.549C14.213,12.14,14.445,11.726,14.845,11.613z M14.845,16.113l5.249-1.478
		c0.396-0.11,0.812,0.121,0.925,0.52s-0.12,0.812-0.52,0.925l-5.249,1.478c-0.066,0.019-0.136,0.028-0.203,0.028
		c-0.327,0-0.629-0.217-0.722-0.548C14.213,16.64,14.445,16.227,14.845,16.113z"/>
	<path fill="#CCCCCC" d="M15.047,8.585c0.067,0,0.137-0.009,0.203-0.028l5.249-1.477c0.399-0.113,0.632-0.527,0.52-0.925
		s-0.528-0.63-0.925-0.52l-5.249,1.477c-0.399,0.113-0.632,0.527-0.52,0.925C14.418,8.369,14.72,8.585,15.047,8.585z"/>
	<path fill="#CCCCCC" d="M15.047,13.086c0.067,0,0.137-0.01,0.203-0.028l5.249-1.477c0.399-0.113,0.632-0.527,0.52-0.925
		s-0.528-0.63-0.925-0.52l-5.249,1.477c-0.399,0.113-0.632,0.527-0.52,0.924C14.418,12.869,14.72,13.086,15.047,13.086z"/>
	<path fill="#CCCCCC" d="M15.047,17.586c0.067,0,0.137-0.01,0.203-0.028l5.249-1.478c0.399-0.113,0.632-0.526,0.52-0.925
		s-0.528-0.63-0.925-0.52l-5.249,1.478c-0.399,0.113-0.632,0.526-0.52,0.925C14.418,17.369,14.72,17.586,15.047,17.586z"/>
	<path fill="#CCCCCC" d="M22.314,0.036l-9.915,2.686c-0.252,0.067-0.799,0.067-1.05-0.004l-9.66-2.677
		C0.827-0.196-0.008,0.426-0.008,1.313v18.237c0,0.752,0.57,1.471,1.296,1.674l9.66,2.677c0.259,0.071,0.591,0.111,0.936,0.111
		c0.237,0,0.586-0.019,0.908-0.106l9.915-2.686c0.728-0.197,1.301-0.914,1.301-1.67V1.313C24.008,0.427,23.173-0.197,22.314,0.036z
		 M11.25,22.428l-9.584-2.648c-0.072-0.021-0.173-0.152-0.173-0.229v-18l9.456,2.614C11.04,4.19,11.143,4.21,11.25,4.227V22.428z
		 M22.508,19.551c0,0.074-0.121,0.203-0.193,0.223l-9.564,2.591V4.179l0.042-0.009l9.716-2.628V19.551z"/>
	<path fill="#CCCCCC" d="M9.249,7.113L4,5.636c-0.396-0.11-0.813,0.121-0.925,0.52c-0.112,0.398,0.12,0.812,0.52,0.925l5.249,1.477
		c0.067,0.019,0.136,0.028,0.204,0.028c0.327,0,0.628-0.216,0.722-0.547C9.88,7.64,9.648,7.226,9.249,7.113z"/>
	<path fill="#CCCCCC" d="M9.249,16.113L4,14.636c-0.396-0.11-0.813,0.121-0.925,0.52c-0.112,0.398,0.12,0.812,0.52,0.925
		l5.249,1.478c0.067,0.019,0.136,0.028,0.204,0.028c0.327,0,0.628-0.217,0.722-0.548C9.88,16.64,9.648,16.227,9.249,16.113z"/>
	<path fill="#CCCCCC" d="M9.249,11.613L4,10.136c-0.396-0.11-0.813,0.121-0.925,0.52c-0.112,0.398,0.12,0.812,0.52,0.925
		l5.249,1.477c0.067,0.019,0.136,0.028,0.204,0.028c0.327,0,0.628-0.217,0.722-0.548C9.88,12.14,9.648,11.726,9.249,11.613z"/>
</g>
</svg>
