<svg xmlns="http://www.w3.org/2000/svg" viewBox="0 0 512 512"><path d="M507.832 142c-2.984-4.232-7.832-6.752-13-6.752h-339.568l-25.704-88.64c-10.08-34.904-34.032-38.672-43.856-38.672h-68.536c-8.784 0-15.888 7.112-15.888 15.888s7.112 15.888 15.888 15.888h68.528c2.168 0 8.784 0 13.296 15.592l88.424 324.968c1.92 6.856 8.168 11.592 15.296 11.592h215.984c6.704 0 12.688-4.2 14.952-10.512l76.128-224.84c1.752-4.872 1.024-10.296-1.944-14.512zm-100.32 218.096h-192.744l-50.576-193.064h308.048l-64.728 193.064zm-31.512 63.968c-22.096 0-40 17.904-40 40s17.904 40 40 40 40-17.904 40-40-17.904-40-40-40zm-144 0c-22.096 0-40 17.904-40 40s17.904 40 40 40 40-17.904 40-40-17.904-40-40-40z"/></svg>