<svg xmlns="http://www.w3.org/2000/svg" viewBox="0 0 512 512"><path d="M512.16 254.792c0 8.832-7.144 15.992-15.984 15.992h-224.44v162.096c0 43.576-35.456 79.04-79.048 79.04s-79.056-35.464-79.056-79.04c0-8.832 7.16-15.992 15.992-15.992s15.992 7.16 15.992 15.992c0 25.952 21.112 47.064 47.08 47.064 25.96 0 47.08-21.112 47.08-47.064v-162.096h-223.944c-8.832 0-15.992-7.168-15.992-15.992 0-123.648 90.456-202.056 239.928-207.24v-31.488c0-8.832 7.16-15.984 15.992-15.984 8.84 0 15.984 7.16 15.984 15.984v31.488c149.504 5.176 240.416 83.592 240.416 207.24zm-32.584-15.984c-7.888-100.264-89.448-159.56-223.824-159.56-134.376 0-215.448 59.296-223.328 159.552h447.152z"/></svg>