<svg xmlns="http://www.w3.org/2000/svg" viewBox="0 0 512 512"><path d="M256 0c-141.384 0-256 114.616-256 256s114.616 256 256 256 256-114.616 256-256-114.616-256-256-256zm64 41.488c72.112 21.496 128.824 78.4 150.352 150.512h-103.784c-11.208-19.264-27.296-35.336-46.568-46.528v-103.984zm31.816 214.616c0 52.968-42.896 95.904-95.816 95.904s-95.816-42.936-95.816-95.904 42.904-95.912 95.816-95.912 95.816 42.944 95.816 95.912zm-127.816-221.64c10.456-1.496 21.128-2.312 32-2.312 10.864 0 21.544.816 32 2.312v97.904c-10.24-2.648-20.928-4.2-32-4.2s-21.752 1.552-32 4.2v-97.904zm-32 7.024v103.984c-19.28 11.192-35.36 27.272-46.568 46.528h-103.784c21.52-72.112 78.24-129.016 150.352-150.512zm-159.848 214.592c0-10.912.928-21.584 2.44-32.08h97.696c-2.656 10.256-4.12 20.992-4.12 32.088 0 11.032 1.456 21.712 4.08 31.912h-97.68c-1.488-10.44-2.416-21.072-2.416-31.92zm159.848 214.584c-72.168-21.504-128.904-78.488-150.4-150.664h103.736c11.216 19.328 27.328 35.472 46.664 46.696v103.968zm96 7.024c-10.456 1.496-21.136 2.312-32 2.312-10.872 0-21.544-.824-32-2.312v-97.888c10.248 2.648 20.928 4.2 32 4.2s21.76-1.552 32-4.2v97.888zm32-7.024v-103.968c19.328-11.224 35.448-27.368 46.656-46.696h103.736c-21.496 72.168-78.232 129.16-150.392 150.664zm59.752-182.664c2.624-10.2 4.08-20.88 4.08-31.912 0-11.096-1.464-21.832-4.128-32.088h97.704c1.504 10.496 2.44 21.168 2.44 32.08 0 10.848-.92 21.488-2.416 31.92h-97.68z"/></svg>