<svg xmlns="http://www.w3.org/2000/svg" viewBox="0 0 512 512"><path d="M342.952 191.592l137.632-136.784-.448 77.536c-.144 6.464 4.984 12.088 11.456 11.944l8.208-.008c6.472-.152 11.824-4 11.96-10.464l.336-115.504-.44-.312.632-5.856c.064-3.248-.696-6.144-2.792-8.216-2.072-2.088-4.976-3.36-8.2-3.272l-5.848.136-.32.056-114.744-.504c-6.464.144-11.816 5.488-11.96 11.96l-.016 8.208c.984 7.624 6.976 12.08 13.44 11.936l75.624.2-137.144 136.312c-6.248 6.248-6.248 16.376 0 22.632 6.248 6.24 16.376 6.24 22.624 0zm-173.408 128.816l-137.632 136.36.44-77.112c.152-6.472-4.984-12.096-11.448-11.952l-8.712.016c-6.48.16-11.824 4-11.96 10.472l-.336 115.504c0 .112.44.184.44.312l-.632 5.84c-.072 3.248.688 6.16 2.792 8.216 2.064 2.096 4.976 3.36 8.192 3.28l5.856-.144.32-.048 115.248.504c6.464-.16 11.808-5.504 11.96-11.968l.016-8.216c-.984-7.608-6.976-12.08-13.44-11.936l-75.624-.2 137.136-136.296c6.248-6.248 6.248-16.376 0-22.624s-16.368-6.256-22.616-.008zm342.56 173.28l-.336-115.504c-.144-6.472-5.496-10.312-11.96-10.472l-8.208-.016c-6.472-.144-11.592 5.488-11.456 11.952l.448 77.536-137.64-136.776c-6.248-6.248-16.376-6.248-22.624 0s-6.248 16.376 0 22.624l137.136 136.296-75.616.2c-6.464-.144-12.456 4.328-13.44 11.936l.016 8.216c.152 6.472 5.504 11.816 11.96 11.968l114.752-.504.32.048 5.848.144c3.224.08 6.136-1.184 8.2-3.28 2.096-2.064 2.848-4.968 2.792-8.216l-.632-5.84c0-.128.44-.2.44-.312zm-457.08-461.024l75.632-.2c6.464.144 12.456-4.32 13.44-11.936l-.016-8.216c-.16-6.472-5.504-11.824-11.96-11.96l-115.256.496-.32-.056-5.856-.136c-3.216-.088-6.136 1.184-8.192 3.272-2.104 2.072-2.864 4.968-2.792 8.216l.632 5.856-.44.312.336 115.504c.144 6.464 5.488 10.312 11.96 10.464l8.712.008c6.464.144 11.592-5.48 11.448-11.944l-.44-77.112 137.632 136.36c6.24 6.248 16.376 6.248 22.624 0 6.248-6.248 6.248-16.384 0-22.632l-137.144-136.296z"/></svg>