<svg xmlns="http://www.w3.org/2000/svg" viewBox="0 0 512 512"><path d="M191.6 173.4l-.336-115.504c-.144-6.464-5.496-10.312-11.96-10.464l-8.208-.008c-6.472-.144-11.592 5.488-11.456 11.944l.448 77.624-133.136-131.864c-6.248-6.248-16.376-6.248-22.624 0s-6.248 16.376 0 22.624l132.56 131.304-75.544.2c-6.464-.144-12.456 4.32-13.44 11.936l.016 8.208c.16 6.472 5.504 11.824 11.96 11.968l114.752-.504.32.056 5.848.136c3.224.088 6.136-1.176 8.2-3.272 2.104-2.072 2.856-4.976 2.792-8.216l-.632-5.856.44-.312zm131.392 14.384c2.064 2.088 4.976 3.36 8.2 3.272l5.848-.136.32-.056 114.752.504c6.464-.144 11.808-5.496 11.96-11.968l.016-8.208c-.984-7.624-6.976-12.08-13.44-11.936l-75.544-.2 132.56-131.304c6.248-6.248 6.248-16.376 0-22.624s-16.376-6.248-22.624 0l-133.128 131.856.44-77.616c.152-6.464-4.976-12.088-11.448-11.944l-8.208.008c-6.48.152-11.824 4-11.96 10.464l-.336 115.504.44.312-.632 5.856c-.072 3.248.68 6.144 2.784 8.216zm-133.984 135.928c-2.072-2.088-4.976-3.352-8.2-3.272l-5.848.144-.32.056-114.76-.504c-6.464.152-11.808 5.496-11.96 11.96l-.016 8.216c.984 7.608 6.976 12.08 13.44 11.928l75.624.2-132.64 131.808c-6.248 6.248-6.248 16.376 0 22.624s16.376 6.248 22.624 0l133.136-132.288-.448 78.04c-.144 6.472 4.984 12.096 11.456 11.952l8.208-.016c6.472-.16 11.824-4 11.96-10.464l.336-115.504-.44-.304.632-6.352c.072-3.248-.68-6.144-2.784-8.224zm186.024 28.736l75.624-.2c6.464.152 12.456-4.32 13.44-11.928l-.016-8.216c-.16-6.472-5.504-11.816-11.96-11.96h-114.752l-.32-.056-6.848-.136c-3.224-.088-6.144 2.176-8.2 4.272-2.104 2.072-2.856 4.968-2.792 8.216l.632 5.848-.44.304.336 115.504c.144 6.464 5.488 10.304 11.96 10.464l8.712.016c6.472.144 11.592-5.488 11.448-11.952l-.44-77.264 133.632 131.512c6.248 6.248 16.376 6.248 22.624 0s6.248-16.376 0-22.624l-132.64-131.8z"/></svg>