<svg xmlns="http://www.w3.org/2000/svg" viewBox="0 0 512 512"><path d="M287.8 46.704c-8.832 0-16 7.168-16 16s7.168 16 16 16c113.224 0 192.2 82.736 192.2 195.952 0 113.232-92.112 205.344-205.336 205.344-113.216 0-195.96-81.8-195.96-195.032 0-8.832-7.168-16-16-16s-16 7.168-16 16c0 130.872 97.096 227.032 227.96 227.032s237.336-106.472 237.336-237.344c0-130.856-93.336-227.952-224.2-227.952zm-47.672 177.424v-208.128c0-8.832-7.168-16-16-16-124.624 0-224.128 99.504-224.128 224.128 0 8.832 7.168 16 16 16h208.128c8.832 0 16-7.168 16-16zm-32-16h-175.472c7.728-94.248 81.224-167.744 175.472-175.472v175.472z"/></svg>