<svg xmlns="http://www.w3.org/2000/svg" viewBox="0 0 512 512"><path d="M426.304 161.648l-156.456-156.456c-4.96-4.96-12.336-5.92-18.304-3.008-6.272 2.168-10.8 8.056-10.8 15.064v354.2c-16.96-12.56-39.216-20.264-63.688-20.264-53.032 0-96.056 35.888-96.056 80.144 0 44.272 43.024 80.168 96.056 80.168 53.056 0 96.04-35.888 96.04-80.168 0-1.96-.184-3.88-.352-5.816v-372.168l130.936 130.928c6.24 6.248 16.376 6.248 22.624 0s6.248-16.384 0-22.624zm-249.616 317.64c-37.824 0-64.176-25.272-64.176-47.936s26.36-47.912 64.176-47.912c37.016 0 63 24.2 64.064 46.496v2.84c-1.072 22.288-27.048 46.512-64.064 46.512z"/></svg>