<svg xmlns="http://www.w3.org/2000/svg" viewBox="0 0 512 512"><path d="M58.416 271.832h277.224c8.848 0 16-7.168 16-16s-7.152-16-16-16h-276.224l57.88-57.88c6.248-6.248 6.248-16.376 0-22.624s-16.376-6.248-22.624 0l-94.504 97 94.504 97c3.128 3.128 7.216 4.688 11.312 4.688s8.184-1.56 11.312-4.688c6.248-6.248 6.248-16.376 0-22.624l-58.88-58.872zm421.416-271.832h-272c-17.68 0-32 14.328-32 32v144h32.208v-124.488c0-10.688 8.672-19.36 19.36-19.36h232.36c10.696 0 19.36 8.672 19.36 19.36l.504 409.144c0 10.688-8.664 19.36-19.36 19.36h-232.856c-10.688 0-19.36-8.672-19.36-19.36v-125.184l-32.208.04v144.488c0 17.672 14.32 32 32 32h271.992c17.68 0 32.008-14.328 32.008-32v-448c-.008-17.672-14.336-32-32.008-32z"/></svg>