<svg xmlns="http://www.w3.org/2000/svg" viewBox="0 0 512 512"><path d="M266.264 330.704c-6.256 6.248-6.256 16.376 0 22.624 3.128 3.128 7.216 4.688 11.312 4.688s8.184-1.56 11.312-4.688l94.504-97-94.504-97.008c-6.248-6.248-16.376-6.248-22.624 0-6.256 6.248-6.256 16.376 0 22.624l57.872 57.88h-308.216c-8.84 0-16 7.168-16 16s7.16 16 16 16h309.224l-58.88 58.88zm213.816-330.704h-288c-17.68 0-32.008 14.328-32.008 32v144h32.216v-124.488c0-10.688 8.672-19.36 19.36-19.36h248.352c10.704 0 19.36 8.672 19.36 19.36l.504 409.144c0 10.688-8.656 19.36-19.36 19.36h-248.848c-10.688 0-19.36-8.672-19.36-19.36v-125.184l-32.216.04v144.488c0 17.672 14.328 32 32.008 32h288c17.672 0 32-14.328 32-32v-448c-.008-17.672-14.336-32-32.008-32z"/></svg>