<svg xmlns="http://www.w3.org/2000/svg" viewBox="0 0 512 512"><path d="M48 224h-32c-8.832 0-16 7.168-16 16v32c0 8.832 7.168 16 16 16h32c8.832 0 16-7.168 16-16v-32c0-8.832-7.168-16-16-16zm448 16h-336c-8.832 0-16 7.168-16 16s7.168 16 16 16h336c8.832 0 16-7.168 16-16s-7.168-16-16-16zm-448 112h-32c-8.832 0-16 7.168-16 16v32c0 8.832 7.168 16 16 16h32c8.832 0 16-7.168 16-16v-32c0-8.832-7.168-16-16-16zm448 16h-336c-8.832 0-16 7.168-16 16s7.168 16 16 16h336c8.832 0 16-7.168 16-16s-7.168-16-16-16zm-448-272h-32c-8.832 0-16 7.168-16 16v32c0 8.832 7.168 16 16 16h32c8.832 0 16-7.168 16-16v-32c0-8.832-7.168-16-16-16zm112 48h336c8.832 0 16-7.168 16-16s-7.168-16-16-16h-336c-8.832 0-16 7.168-16 16s7.168 16 16 16z"/></svg>