<svg xmlns="http://www.w3.org/2000/svg" viewBox="0 0 512 512"><path d="M508.352 256.68l-240.184-251.584c-3.016-3.152-7.184-4.92-11.544-4.92-4.352 0-8.52 1.776-11.544 4.92l-241.424 251.576c-6.12 6.376-5.904 16.496.472 22.624 6.376 6.112 16.496 5.936 22.624-.472l21.504-22.416v239.416c0 8.84 7.168 16 16 16h111.776c8.816 0 15.968-7.128 16-15.952l.504-159.832h127.496v159.784c0 8.84 7.16 16 16 16h111.736c8.84 0 16-7.16 16-16v-239.496l21.496 22.52c3.144 3.264 7.344 4.92 11.544 4.92 3.984 0 7.984-1.472 11.08-4.472 6.368-6.112 6.576-16.24.464-22.616zm-76.584-29.272v252.416h-79.736v-159.776c0-8.84-7.16-16-16-16h-159.44c-8.816 0-15.968 7.128-16 15.952l-.504 159.832h-79.832v-252.424c0-1.32-.208-2.584-.504-3.816l176.88-184.312 175.712 184.104c-.344 1.296-.576 2.632-.576 4.024z"/></svg>