<svg xmlns="http://www.w3.org/2000/svg" viewBox="0 0 512 512"><path d="M480 512h-160c-17.672 0-32-14.328-32-32v-160c0-17.672 14.328-32 32-32h160c17.672 0 32 14.328 32 32v160c0 17.672-14.328 32-32 32zm0-192h-160v160h160v-160zm0-96h-160c-17.672 0-32-14.328-32-32v-160c0-17.672 14.328-32 32-32h160c17.672 0 32 14.328 32 32v160c0 17.672-14.328 32-32 32zm0-192h-160v160h160v-160zm-288 480h-160c-17.672 0-32-14.328-32-32v-160c0-17.672 14.328-32 32-32h160c17.672 0 32 14.328 32 32v160c0 17.672-14.328 32-32 32zm0-192h-160v160h160v-160zm0-96h-160c-17.672 0-32-14.328-32-32v-160c0-17.672 14.328-32 32-32h160c17.672 0 32 14.328 32 32v160c0 17.672-14.328 32-32 32zm0-192h-160v160h160v-160z"/></svg>