<svg xmlns="http://www.w3.org/2000/svg" viewBox="0 0 512 512"><path d="M80.024 193.936v-177.936c0-8.832-7.168-16-16-16s-16 7.168-16 16v177.92c-27.664 7.128-48.2 32.224-48.2 62.08 0 29.864 20.536 54.952 48.2 62.088v177.912c0 8.832 7.168 16 16 16s16-7.168 16-16v-177.928c27.64-7.152 48.152-32.224 48.152-62.072 0-29.84-20.512-54.92-48.152-62.064zm-15.816 94.08l-.184-.016-.208.024c-17.576-.104-31.848-14.424-31.848-32.024 0-17.592 14.28-31.92 31.856-32.016l.2.016.184-.016c17.568.112 31.832 14.432 31.832 32.016 0 17.592-14.264 31.904-31.832 32.016zm207.824 1.92v-273.936c0-8.832-7.168-16-16-16s-16 7.168-16 16v273.92c-27.664 7.136-48.2 32.216-48.2 62.08 0 29.864 20.536 54.952 48.2 62.088v81.912c0 8.832 7.168 16 16 16s16-7.168 16-16v-81.928c27.632-7.152 48.144-32.224 48.144-62.072-.008-29.832-20.512-54.912-48.144-62.064zm-15.824 94.08l-.184-.016-.208.024c-17.576-.104-31.848-14.424-31.848-32.024 0-17.608 14.304-31.936 31.896-32.016l.168.016.144-.016c17.584.096 31.872 14.416 31.872 32.016 0 17.592-14.264 31.904-31.84 32.016zm207.824-286.08v-81.936c0-8.832-7.168-16-16-16-8.84 0-16 7.168-16 16v81.92c-27.664 7.128-48.2 32.216-48.2 62.08 0 29.864 20.536 54.96 48.2 62.088v273.912c0 8.832 7.16 16 16 16 8.832 0 16-7.168 16-16v-273.928c27.632-7.152 48.144-32.224 48.144-62.072-.008-29.832-20.512-54.912-48.144-62.064zm-15.824 94.08l-.176-.016-.208.016c-17.576-.096-31.856-14.416-31.856-32.016 0-17.592 14.28-31.92 31.848-32.016l.208.016.176-.016c17.568.12 31.832 14.432 31.832 32.016.016 17.592-14.248 31.904-31.824 32.016z"/></svg>