<svg xmlns="http://www.w3.org/2000/svg" viewBox="0 0 512 512"><path d="M207.72.12c145.416 0 146.544 6.032 164.552 19.592 9.552 7.184 27.576 12.168 93.416 16.456 4.784.312 9.32 2.144 12.368 5.84 1.4 1.704 34.296 49.68 34.296 126.512 0 75.72-23.544 110.24-24.552 111.848-2.92 4.672-8.048 7.512-13.56 7.512-54.056 0-128.992 69-179.376 189.456-8.712 20.832-10.504 34.528-42.512 34.528-18.2 0-38.6-13.032-48.688-29.752-20.656-34.16-10.168-107.528-.456-146.736-33 .264-92.736.72-121.16.72-39.536 0-65.696-23.576-66.504-58.048-.256-11.376 1.232-25.912 4.528-33.416-8.696-8.68-19.928-21.776-20.416-38.632-.616-21.752 13.64-38.32 22.728-47.832-2.08-6.328-6.256-14.72-5.856-24.752 1.008-24.672 20.048-40.576 31.92-48.872-.976-6.728-1.744-19.472.416-29.312 8.56-39.312 66.2-55.112 158.856-55.112zm249.472 68.504c-57.344-4.744-88-11.168-104.168-23.344-12.512-9.416-10.576-13.152-145.304-13.152-41.088 0-121.448 1.712-127.608 29.912-2.456 11.28 9.44 22.376 9.488 22.456 3.248 8.024-.376 17.424-8.296 20.888-.128.064-32.064 11.512-32.8 29.368-.472 11.416 7.36 18.272 7.544 18.552 4.656 7.232 2.952 17.16-4.112 22.08-.08.064-20.784 12.608-20.272 29.72.392 13.576 18.288 23.144 18.832 23.464 4 2.288 6.912 6.248 7.816 10.784.904 4.512-.112 9.264-2.912 12.92 0 0-8.136 12.936-7.848 25.056.592 25.968 28.512 26.784 34.504 26.784 40.36 0 144.016-.424 144.016-.424 5.592-.016 10.432 2.624 13.432 7.096s3.232 10.032 1.464 15.112c-15.624 45.016-24.352 115.64-9.856 139.768 4.264 7.112 5.248 14.216 21.248 14.216 2.216 0 7.496-1.752 13-14.872 53.496-127.904 133.352-201.904 198.76-208.576 5.64-12.864 16.248-39.52 16.248-87.896-.016-49.368-15.656-87.552-23.176-99.912z"/></svg>