<svg xmlns="http://www.w3.org/2000/svg" viewBox="0 0 512 512"><path d="M286.96 98.952l-252.64 157.048 252.64 157.048v-123.488l192 123.488v-314.096l-192 123.496v-127.92m-1.328-27.576c5.352 0 11.368 1.336 16.208 4.032 10.16 5.64 17.12 16.352 17.12 27.968v65.92l149.112-93.096c5.16-3.2 10.688-4.824 16.56-4.824 5.344 0 7.864 1.336 12.712 4.032 10.16 5.64 13.616 16.352 13.616 27.968v314.096c0 11.624-3.624 22.328-13.784 27.968-4.84 2.688-8.864 4.032-14.216 4.032-5.864 0-10.392-1.608-15.552-4.832l-148.448-93.088v65.92c0 11.624-6.96 22.328-17.12 27.968-4.84 2.688-10.52 4.032-15.88 4.032-5.856 0-11.896-1.608-17.056-4.832l-252.728-157.048c-9.384-5.824-15.136-16.104-15.136-27.168s5.688-21.336 15.08-27.176l252.632-157.048c5.152-3.208 11.016-4.824 16.88-4.824z"/></svg>