<svg xmlns="http://www.w3.org/2000/svg" viewBox="0 0 512 512"><path d="M225.04 98.952l252.64 157.048-252.64 157.048v-123.488l-192 123.488v-314.096l192 123.496v-127.92m1.328-27.576c-5.36 0-11.368 1.336-16.216 4.032-10.152 5.64-17.112 16.352-17.112 27.968v65.92l-149.112-93.096c-5.16-3.2-10.688-4.824-16.56-4.824-5.344 0-7.864 1.336-12.72 4.032-10.144 5.64-13.608 16.352-13.608 27.968v314.096c0 11.624 3.624 22.328 13.784 27.968 4.84 2.688 8.864 4.032 14.216 4.032 5.864 0 10.392-1.608 15.552-4.832l148.448-93.088v65.92c0 11.624 6.96 22.328 17.112 27.968 4.848 2.688 10.528 4.032 15.888 4.032 5.856 0 11.896-1.608 17.056-4.832l252.728-157.048c9.392-5.832 15.144-16.112 15.144-27.168s-5.688-21.336-15.08-27.176l-252.64-157.048c-5.152-3.208-11.024-4.824-16.88-4.824z"/></svg>