<svg xmlns="http://www.w3.org/2000/svg" viewBox="0 0 512 512"><path d="M471.968 0c-8.832 0-16 7.168-16 16v235c-1.44-9.096-6.72-17.232-14.688-22.184l-367.856-223.304c-5.16-3.2-11.032-4.824-16.888-4.824-5.36 0-10.704 1.336-15.544 4.032-10.16 5.64-16.456 16.352-16.456 27.968l-.504 446.616c0 11.624 6.296 22.328 16.456 27.968 4.84 2.688 10.184 4.032 15.544 4.032 5.856 0 11.736-1.608 16.888-4.832l368.36-223.304c7.968-4.936 13.248-13.08 14.688-22.176v235.008c0 8.832 7.168 16 16 16s16-7.168 16-16v-480c0-8.832-7.16-16-16-16zm-415.936 479.304l.496-446.608 367.872 223.296-368.368 223.312z"/></svg>