<?xml version="1.0" encoding="utf-8"?>
<!-- Generator: Adobe Illustrator 16.0.0, SVG Export Plug-In . SVG Version: 6.00 Build 0)  -->
<!DOCTYPE svg PUBLIC "-//W3C//DTD SVG 1.1//EN" "http://www.w3.org/Graphics/SVG/1.1/DTD/svg11.dtd">
<svg version="1.1" id="Layer_1" xmlns="http://www.w3.org/2000/svg" xmlns:xlink="http://www.w3.org/1999/xlink" x="0px" y="0px"
	 width="24px" height="24px" viewBox="0 0 24 24" enable-background="new 0 0 24 24" xml:space="preserve">
<g>
	<path fill="none" d="M9.741,19.171l0.011,1c0,1.458,0.815,2.329,2.219,2.329c1.455,0,2.281-0.85,2.281-2.329v-1.017
		C13.707,19.345,12.971,19.5,12,19.5C11.016,19.5,10.281,19.355,9.741,19.171z"/>
	<path fill="none" d="M12,1.5c-3.813,0-6.776,3.103-6.776,6.917c0,2.827,1.302,4.12,2.575,5.261
		c0.961,0.861,1.961,1.674,1.961,2.953v0.974c0.307,0.179,0.925,0.409,2.227,0.409c1.241,0,1.897-0.236,2.253-0.435v-0.947
		c0-1.61,1.147-2.53,2.166-3.42c1.234-1.078,2.37-2.192,2.37-4.795C18.776,4.603,15.814,1.5,12,1.5z"/>
	<path fill="#CCCCCC" d="M12,0C7.358,0,3.724,3.776,3.724,8.417c0,3.497,1.717,5.163,3.074,6.378
		c0.874,0.783,1.462,1.256,1.462,1.837v1.271c0,0.032,0.004,0.064,0.009,0.097H8.251v2.171c0,2.29,1.481,3.829,3.775,3.829
		c2.214,0,3.726-1.539,3.726-3.829V18H15.73c0.004-0.032,0.01-0.064,0.01-0.097v-1.271c0-0.886,0.656-1.421,1.652-2.29
		c1.348-1.177,2.884-2.641,2.884-5.925C20.276,3.776,16.641,0,12,0z M14.252,20.171c0,1.479-0.826,2.329-2.281,2.329
		c-1.404,0-2.219-0.871-2.219-2.329l-0.011-1C10.281,19.355,11.016,19.5,12,19.5c0.971,0,1.707-0.155,2.252-0.346V20.171z
		 M16.406,13.212c-1.019,0.89-2.166,1.81-2.166,3.42v0.947c-0.355,0.198-1.012,0.435-2.253,0.435c-1.302,0-1.92-0.23-2.227-0.409
		v-0.974c0-1.279-1-2.092-1.961-2.953c-1.273-1.141-2.575-2.434-2.575-5.261C5.224,4.603,8.186,1.5,12,1.5
		c3.815,0,6.777,3.103,6.777,6.917C18.776,11.02,17.641,12.134,16.406,13.212z"/>
</g>
</svg>
