<svg xmlns="http://www.w3.org/2000/svg" viewBox="0 0 512 512"><path d="M136.032 159.992h-112.032c-8.84 0-16 7.16-16 16v320.008c0 8.84 7.16 16 16 16h112.032c8.84 0 16-7.16 16-16v-320.008c0-8.84-7.16-16-16-16zm-16 320.008h-80.032v-288.008h80.032v288.008zm191.84-224.872h-112.04c-8.84 0-16 7.16-16 16v224.872c0 8.84 7.16 16 16 16h112.04c8.84 0 16-7.16 16-16v-224.872c0-8.848-7.152-16-16-16zm-16 224.872h-80.04v-192.872h80.04v192.872zm192.128-480h-111.864c-8.84 0-16 7.16-16 16v480c0 8.84 7.16 16 16 16h111.864c8.84 0 16-7.16 16-16v-480c0-8.84-7.16-16-16-16zm-16 480h-79.864v-448h79.864v448z"/></svg>