<svg xmlns="http://www.w3.org/2000/svg" viewBox="0 0 512 512"><path d="M319.064 111.688c.64 0 1.16.504 1.16 1.12v63.936c0 11.832 6.528 22.712 17 28.264 4.704 2.504 9.856 3.736 15 3.736 6.28 0 13.528-1.84 18.92-5.496l108.856-61.616v228.208l-109.456-59.76c-5.488-3.832-11.888-5.768-18.328-5.768-5.064 0-10.128 1.2-14.784 3.608-10.56 5.512-17.2 16.44-17.216 28.344l-.08 62.92c0 .624-.504 1.128-1.144 1.128h-285.848c-.64 0-1.144-.496-1.144-1.112l.08-286.392c0-.624.504-1.12 1.144-1.12h285.84m176.12-16.016c-3.408 0-10.144 1.008-13.984 4.832l-128.984 76.24v-63.936c0-18.28-14.84-33.12-33.16-33.12h-285.84c-18.336 0-33.144 14.832-33.144 33.12l-.072 286.376c0 18.28 14.816 33.128 33.144 33.128h285.856c18.328 0 33.144-14.84 33.144-33.128l.08-62.872 131.488 76.656c3.856 3.84 8.128 3.344 11.544 3.344 3.544 0 6.184-1.08 6.512-1.216 6.216-2.592 10.232-8.592 10.232-15.344v-287.488c0-6.752-4.016-12.776-10.232-15.328-.36-.16-3.016-1.264-6.584-1.264z"/></svg>