<svg xmlns="http://www.w3.org/2000/svg" viewBox="0 0 512 512"><path d="M464 112h-73.592l-38.408-64h-192l-38.4 64h-73.6c-16 0-48 16-48 47.504v256.496c0 26.504 24 48 44.664 48h420.336c21 0 47-22.496 47-47.496v-256.504c0-16-16-48-48-48zm16 304.504c0 6.312-10.232 15.144-15 15.504h-420.24c-3.704-.304-12.76-7.52-12.76-16.008v-256.496c0-10.136 13.616-15.248 16-15.504h91.72l9.32-15.536 29.08-48.464h156.824l28.56 48.472 8.8 15.528h91.696c11.28 0 15.84 14.736 16 16v256.504zm-224-256.504c-61.856 0-112 50.144-112 112s50.144 112 112 112 112-50.144 112-112-50.144-112-112-112zm0 192c-44.112 0-80-35.888-80-80s35.888-80 80-80 80 35.888 80 80-35.888 80-80 80z"/></svg>