<svg xmlns="http://www.w3.org/2000/svg" viewBox="0 0 512 512"><path d="M256 0c-141.384 0-256 114.616-256 256 0 141.392 114.616 256 256 256 141.392 0 256-114.608 256-256 0-141.384-114.608-256-256-256zm0 480.504c-123.512 0-224-100.992-224-224.504s100.488-224 224-224 224 100.488 224 224-100.488 224.504-224 224.504zm90.504-315.008c-6.248-6.248-16.376-6.248-22.624 0l-67.88 67.88-67.88-67.88c-6.248-6.248-16.376-6.248-22.632 0-6.248 6.248-6.248 16.376 0 22.624l67.88 67.88-67.88 67.88c-6.248 6.24-6.248 16.384 0 22.624 6.248 6.248 16.376 6.248 22.632 0l67.88-67.88 67.88 67.88c6.248 6.248 16.376 6.248 22.624 0 6.248-6.24 6.248-16.384 0-22.624l-67.88-67.88 67.88-67.88c6.256-6.256 6.256-16.384 0-22.624z"/></svg>