<svg xmlns="http://www.w3.org/2000/svg" viewBox="0 0 512 512"><path d="M381.512 129.984c-22.312-59.216-70.28-96.72-142.736-96.72-92.192 0-156.696 68.456-162.24 157.768-44.448 14.216-76.536 59.56-76.536 110.92 0 62.872 49.424 115.984 107.912 115.984h46.224c8.832 0 16-7.168 16-16 0-8.84-7.168-16-16-16h-46.224c-41.152 0-76.416-38.456-76.416-83.984 0-40.232 28.208-76.528 63.592-82.608l14.52-2.504-1.288-14.664-.12-.184c0-77.936 51.288-136.72 130.576-136.72 63.552 0 99.256 31.312 115.768 84.72l3.424 11.016 11.528.248c59.44 1.248 111.552 49.472 111.552 109.384 0 54.528-36.136 115.296-90.848 115.296h-36.56c-8.832 0-16 7.168-16 16 0 8.84 7.168 16 16 16l36.44-.048c80-2.112 121.672-78.536 121.672-147.248 0-73.856-57.88-132.872-130.24-140.656zm-113.52 127.488l-.176-.256-4.048-4.232c-2.216-2.344-5.168-3.504-8.12-3.488-2.952-.024-5.888 1.144-8.144 3.488l-4.048 4.232-.168.256-57.752 63.872c-4.472 4.672-4.472 12.232 0 16.92l4.032 2.736c4.472 4.672 11.72 3.16 16.184-1.512l34.056-37.968v161.216c0 8.832 7.168 16 16 16s16-7.168 16-16v-161.064l35.184 38.816c4.472 4.672 11.704 6.184 16.168 1.512l4.032-2.736c4.472-4.688 4.472-12.248 0-16.92l-59.2-64.872z"/></svg>