<svg xmlns="http://www.w3.org/2000/svg" viewBox="0 0 512 512"><path d="M257.736 160.704c-53.016 0-96 42.984-96 96 0 53.008 42.984 96 96 96s96-42.984 96-96-42.984-96-96-96zm0 160c-35.288 0-64.736-29.408-64.736-64.696s28.712-64 64-64c35.296 0 64 28.712 64 64s-27.968 64.696-63.264 64.696zm254.104-68.416c-.184-.808-.104-1.664-.344-2.456-.104-.336-.312-.528-.432-.824-.168-.456-.128-.992-.36-1.432-46.536-106.552-146.832-167.88-253.712-167.88s-209.184 61.216-255.744 167.776c-.2.448-.168.912-.328 1.424l-.448.784c-.248.808-.152 1.648-.304 2.464-.296 1.44-.568 2.84-.568 4.296 0 1.472.272 2.832.568 4.296.16.8.056 1.672.304 2.44.104.36.336.512.448.84.168.44.128.984.328 1.424 46.568 106.528 147.872 166.856 254.752 166.856 106.888 0 208.168-60.2 254.72-166.752.232-.456.184-.936.36-1.44.112-.28.328-.488.424-.8.248-.784.168-1.64.344-2.456.28-1.432.544-2.832.544-4.312 0-1.408-.264-2.8-.552-4.248zm-255.84 148.008c-90.648 0-179.872-47.784-223.712-143.84 43.424-95.736 133.84-144.752 224.712-144.752 90.84 0 179.248 49.072 222.688 144.856-43.408 95.704-132.816 143.736-223.688 143.736z"/></svg>