<svg xmlns="http://www.w3.org/2000/svg" viewBox="0 0 512 512"><path d="M143.992 57.08c15.688 0 44.048 7.504 90.048 52.808l22.808 22.456 22.464-22.816c31.936-32.448 65.92-52.6 88.688-52.6 30.704 0 54.904 10.504 78.504 34.048 22.232 22.184 34.496 51.68 34.496 83.056.016 31.392-12.224 60.912-34.704 83.336-1.832 1.856-98.496 106.152-179.48 193.552-3.816 3.624-8.176 4.16-10.496 4.16-2.288 0-6.6-.512-10.4-4.048-19.736-21.952-162.776-181-179.408-197.616-22.264-22.208-34.512-51.728-34.512-83.112.008-31.376 12.256-60.864 34.52-83.072 21.648-21.632 46.992-30.152 77.472-30.152m0-32c-38.264 0-72 11.448-100.088 39.504-58.536 58.384-58.536 153.064 0 211.48 16.712 16.72 178.928 197.168 178.928 197.168 9.24 9.248 21.376 13.84 33.48 13.84 12.112 0 24.2-4.592 33.456-13.84 0 0 177.44-191.512 179.328-193.424 58.52-58.44 58.52-153.12 0-211.504-29.056-29-61.512-43.392-101.104-43.392-37.824 0-80 30.16-111.504 62.16-32.496-31.992-73.368-61.992-112.496-61.992z"/></svg>