<svg xmlns="http://www.w3.org/2000/svg" viewBox="0 0 512 512"><path d="M400 192h-16v-61.064c0-73.424-53.128-130.936-128.592-130.936-75.768 0-127.408 58.736-127.408 130.936v61.064h-16c-35.296 0-64 28.704-64 64v192c0 35.296 28.704 64 64 64h288c35.296 0 64-28.704 64-64v-192c0-35.296-28.704-64-64-64zm-240-61.064c0-54.544 37.28-98.936 95.408-98.936 57.528 0 96.592 43.456 96.592 98.936v61.064h-192v-61.064zm272 317.064c0 17.64-14.36 32-32 32h-288c-17.64 0-32-14.36-32-32v-192c0-17.64 14.36-32 32-32h288c17.64 0 32 14.36 32 32v192zm-176-160c-17.672 0-32 14.328-32 32 0 11.816 6.48 22.016 16 27.56v52.44c0 8.832 7.168 16 16 16s16-7.168 16-16v-52.44c9.52-5.544 16-15.752 16-27.56 0-17.672-14.328-32-32-32z"/></svg>