<svg xmlns="http://www.w3.org/2000/svg" viewBox="0 0 512 512"><path d="M507.312 484.52l-141.512-142.384c30.304-36.2 48.544-82.88 48.544-133.856 0-115.032-92.752-208.28-207.776-208.28s-208.272 93.248-208.272 208.272c0 115.024 93.248 208.272 208.272 208.272 52.504 0 100.336-19.48 136.848-51.536l141.264 142.152c6.248 6.248 16.384 6.248 22.624 0 6.256-6.256 6.256-16.384.008-22.64zm-301.016-100.52c-96.776 0-176-79.224-176-176s79.224-176 176-176 176 79.224 176 176-79.224 176-176 176zm80-192h-160c-8.832 0-16 7.168-16 16s7.168 16 16 16h160c8.832 0 16-7.168 16-16s-7.16-16-16-16z"/></svg>