<svg xmlns="http://www.w3.org/2000/svg" viewBox="0 0 512 512"><path d="M86.36 503.816c-21.704 0-42.544-8.984-59.152-25.608-36.824-36.944-36.824-97.032-.008-133.952l287.136-304.912c44.8-44.872 113.424-40.84 163.504 9.304 22.44 22.48 35.032 54.888 34.56 88.952-.472 33.704-13.64 65.96-36.144 88.504l-217.008 231.024c-6.04 6.472-16.168 6.768-22.616.696-6.432-6.08-6.744-16.224-.68-22.672l217.336-231.376c17-17.032 26.752-41.192 27.112-66.624.36-25.448-8.832-49.44-25.184-65.832-30.72-30.784-80.736-46.904-117.92-9.632l-287.128 304.912c-24.688 24.752-24.68 64.504-.32 88.928 11.424 11.432 24.984 17 39.424 16.128 14.288-.872 28.976-8.2 41.36-20.616l228.464-243.168c8.28-8.296 24.92-28.632 7.984-45.608-9.592-9.608-16.328-9.016-18.544-8.832-6.328.56-13.72 4.936-21.392 12.632l-171.96 182.888c-6.072 6.456-16.208 6.768-22.616.68-6.44-6.064-6.736-16.224-.68-22.656l172.272-183.232c13.544-13.608 27.392-20.984 41.488-22.248 11-.976 27.36 1.368 44.048 18.104 24.768 24.816 21.688 61.216-7.64 90.608l-228.464 243.152c-18.24 18.304-40.264 28.936-62.36 30.296-1.624.112-3.248.16-4.872.16z"/></svg>