<svg xmlns="http://www.w3.org/2000/svg" viewBox="0 0 512 512"><path d="M255.64 0c-127.904 0-231.96 104.064-231.96 231.968 0 120.224 92.648 220.768 211.784 231.048l-45.928 23.28c-5.672 3.112-9.048 10.112-5.688 15.64l1.624 4.2c3.376 5.528 10.688 7.488 16.344 4.392l76.656-39.248.296-.112 5.144-2.816c2.84-1.56 4.72-4.112 5.472-6.952.784-2.84.424-6-1.264-8.752l-3.048-5-.2-.248-47.344-73.984c-3.36-5.528-10.656-7.488-16.344-4.392l-3.72 2.592c-5.672 3.096-6.048 11.096-2.688 16.608l27.936 43.336-.432-.072c-104.64-6.864-186.6-94.52-186.6-199.52 0-110.264 89.704-199.968 199.96-199.968 110.272 0 200.48 89.704 200.48 199.968 0 63.488-29.16 121.8-80 159.984-7.064 5.312-8.488 15.344-3.184 22.408 5.312 7.08 15.344 8.488 22.408 3.184 58.968-44.296 92.784-111.936 92.784-185.576-.008-127.904-104.576-231.968-232.488-231.968z"/></svg>