<svg xmlns="http://www.w3.org/2000/svg" viewBox="0 0 512 512"><path d="M311.848-.112c-110.456 0-200 89.536-200 200 0 49.256 17.84 94.336 47.368 129.184l-63.656 64.048-67.632-68.272c-6.24-6.248-16.376-6.248-22.624 0s-6.248 16.376 0 22.624l67.696 68.344-68.176 68.592c-6.248 6.248-6.248 16.392 0 22.624 6.24 6.248 16.376 6.248 22.624 0l68.072-68.496 68.232 68.88c6.248 6.248 16.376 6.248 22.624 0s6.248-16.376 0-22.624l-68.304-68.952 63.704-64.096c34.976 29.984 80.384 48.144 130.064 48.144 110.456 0 200-89.544 200-200 .008-110.464-89.536-200-199.992-200zm0 368.272c-92.928 0-168.264-75.344-168.264-168.272s75.336-168.264 168.264-168.264 168.264 75.336 168.264 168.264c.008 92.928-75.328 168.272-168.264 168.272z"/></svg>