<svg xmlns="http://www.w3.org/2000/svg" viewBox="0 0 512 512"><path d="M496 240h-48.72c-7.696-93.264-82.024-167.52-175.28-175.232v-48.768c0-8.832-7.168-16-16-16s-16 7.168-16 16v48.768c-93.248 7.712-167.584 81.968-175.288 175.232h-48.712c-8.832 0-16 7.168-16 16s7.168 16 16 16h48.712c7.704 93.256 82.04 167.52 175.288 175.232v48.768c0 8.832 7.168 16 16 16s16-7.168 16-16v-48.768c93.256-7.712 167.584-81.976 175.28-175.232h48.72c8.832 0 16-7.168 16-16s-7.168-16-16-16zm-256-143.208v143.208h-143.224c7.504-75.6 67.624-135.704 143.224-143.208zm-143.224 175.208h143.224v143.208c-75.6-7.504-135.72-67.608-143.224-143.208zm175.224 143.208v-143.208h143.224c-7.504 75.6-67.624 135.704-143.224 143.208zm0-175.208v-143.208c75.6 7.504 135.72 67.608 143.224 143.208h-143.224z"/></svg>