<?xml version="1.0" encoding="utf-8"?>
<!-- Generator: Adobe Illustrator 16.0.0, SVG Export Plug-In . SVG Version: 6.00 Build 0)  -->
<!DOCTYPE svg PUBLIC "-//W3C//DTD SVG 1.1//EN" "http://www.w3.org/Graphics/SVG/1.1/DTD/svg11.dtd">
<svg version="1.1" id="Layer_1" xmlns="http://www.w3.org/2000/svg" xmlns:xlink="http://www.w3.org/1999/xlink" x="0px" y="0px"
	 width="24px" height="24px" viewBox="0 0 24 24" enable-background="new 0 0 24 24" xml:space="preserve">
<path fill-rule="evenodd" clip-rule="evenodd" d="M10.752,4.5c2.912,0,5.422,1.775,6.576,4.336L20.5,7.312l-1.133,7.572l-6.92-3.822
	l2.971-1.413c-0.843-1.786-2.616-3.016-4.666-3.016c-2.866,0-5.189,2.403-5.189,5.367s2.323,5.367,5.189,5.367
	c1.239,0,2.377-0.449,3.27-1.199c1.396,1.523-0.032,0.002,1.424,1.549c-1.266,1.111-2.903,1.783-4.693,1.783
	C6.747,19.5,3.5,16.143,3.5,12C3.5,7.858,6.747,4.5,10.752,4.5z"/>
</svg>
