<?xml version="1.0" encoding="utf-8"?>
<!-- Generator: Adobe Illustrator 16.0.0, SVG Export Plug-In . SVG Version: 6.00 Build 0)  -->
<!DOCTYPE svg PUBLIC "-//W3C//DTD SVG 1.1//EN" "http://www.w3.org/Graphics/SVG/1.1/DTD/svg11.dtd">
<svg version="1.1" id="Layer_1" xmlns="http://www.w3.org/2000/svg" xmlns:xlink="http://www.w3.org/1999/xlink" x="0px" y="0px"
	 width="24px" height="24px" viewBox="0 0 24 24" enable-background="new 0 0 24 24" xml:space="preserve">
<path d="M20,12.123c-0.104,4.397-3.799,8.001-8.077,7.874c-4.474-0.132-7.991-3.756-7.924-8.167c0.066-4.366,3.742-7.914,8.11-7.829
	C16.627,4.089,20.104,7.668,20,12.123z M15.776,12.684c0.03,0.306,0.148,0.579,0.058,0.731c-0.592,0.992-1.184,1.99-1.875,2.914
	c-0.217,0.289-0.876,0.593-1.091,0.472c-0.345-0.194-0.549-0.716-0.699-1.139c-0.116-0.327,0.051-0.774-0.107-1.06
	c-0.188-0.34-0.592-0.799-0.898-0.795c-0.776,0.008-1.597-0.109-1.742-0.817c-0.133-0.646,0.269-1.405,0.463-2.106
	c0.063-0.229,0.353-0.48,0.298-0.643c-0.302-0.905,0.523-1.218,0.908-1.732c0.26-0.347,0.708-0.555,1.123-0.862
	c-0.282-0.152-0.499-0.268-0.714-0.385c0.002-0.132,0.005-0.264,0.008-0.396c0.716-0.099,1.429-0.238,2.148-0.287
	c0.746-0.05,1.631-0.117,2.572-0.117c-2.187-1.788-5.923-1.926-8.017-0.44c-0.168,0.119-0.23,0.411-0.294,0.596
	C7.695,7.265,7.519,7.927,7.326,8.583C7.208,8.562,7.09,8.542,6.972,8.521c-0.095-0.258-0.19-0.515-0.285-0.773
	C6.59,7.751,6.493,7.754,6.395,7.757c-0.086,0.428-0.33,0.899-0.225,1.275c0.207,0.741,0.083,1.208-0.564,1.669
	c-0.3,0.214-0.462,0.713-0.545,1.112c-0.348,1.665,1.011,2.536,1.98,3.362c0.813,0.691,0.587,1.182,0.058,1.848
	c2.6,2.193,6.015,2.614,8.686,0.88c2.07-1.343,3.652-4.239,3.118-5.94c-0.219,0.349-0.655,0.76-0.883,1.123
	c-0.243-1.124-0.786-1.866-2.136-1.721c0.328,0.188,0.603,0.345,0.973,0.558C16.418,12.231,16.092,12.462,15.776,12.684z
	 M14.379,10.702c-1.466-1.254-2.905-1.424-3.466-0.545c0.39,0.068,0.951-0.001,1.156,0.233
	C12.822,11.252,13.627,10.51,14.379,10.702z" fill="#cdcdcd"/>
</svg>
